<svg preserveAspectRatio="none" width="100%" height="100%" overflow="visible" style="display: block;" viewBox="0 0 469 177" fill="none" xmlns="http://www.w3.org/2000/svg">
<g id="Logo">
<rect width="469" height="177" fill="none"/>
<g id="Vector">
<path d="M77.5986 132.589C77.2591 132.591 77.1732 132.422 77.1717 132.167L77.1671 131.403C77.1463 127.923 75.3553 126.491 71.3663 126.515L20.9523 126.817C20.6977 126.818 20.5269 126.65 20.5254 126.395C20.5239 126.14 20.6926 125.97 20.9472 125.968L21.711 125.964C27.058 125.932 28.8195 122.441 28.7789 115.651L28.2501 27.2994C28.2095 20.5096 26.4069 17.1254 21.0599 17.1574L20.2961 17.162C20.0415 17.1635 19.8707 16.9948 19.8692 16.7402C19.8676 16.4856 20.0364 16.3148 20.291 16.3133L43.7157 16.1731C43.9703 16.1716 44.1411 16.3403 44.1426 16.5949C44.1441 16.8495 43.9754 17.0203 43.7208 17.0218L42.9569 17.0264C37.8646 17.0569 36.1026 20.4624 36.1432 27.2522L36.672 115.604C36.7126 122.394 38.5157 125.863 44.1173 125.829L56.8481 125.753C70.9369 125.669 76.3088 115.622 78.6761 99.9055C78.6751 99.7357 78.759 99.5655 79.0984 99.5634C79.3531 99.5619 79.5233 99.6458 79.5253 99.9852L78.0204 132.162C78.0224 132.501 77.8532 132.587 77.5986 132.589Z" fill="#ffffff"/>
<path d="M99.0418 127.538C91.7428 127.581 87.8122 123.191 87.7747 116.911C87.7396 111.055 91.5355 107.128 97.719 105.054C101.954 103.67 115.595 99.5996 125.34 96.9951L125.193 72.467C125.104 57.5295 118.182 49.6775 106.215 49.7492C95.4363 49.8137 87.7612 57.9227 87.817 67.2587C87.8561 73.7938 90.1756 78.4481 96.5446 79.0041C99.5176 79.4107 102.24 80.4978 102.261 84.0624C102.277 86.6934 100.168 88.8279 96.8581 88.8477C90.6624 88.8848 85.3572 81.7022 85.3023 72.536C85.2013 55.6464 97.5489 48.2733 109.007 48.2047C124.029 48.1148 132.824 56.9741 132.917 72.5057L133.177 115.875C133.213 121.986 135.521 124.603 139.425 124.58C144.517 124.55 148.134 119.096 148.087 111.288C148.05 105.007 145.317 102.138 145.307 100.525C145.304 100.101 145.556 99.675 146.066 99.6719C146.66 99.6684 147.088 100.26 147.519 101.446C148.037 102.885 148.907 106.36 148.932 110.689C148.994 121.043 143.937 126.93 136.383 126.975C130.273 127.011 125.499 123.56 125.444 114.394L125.396 106.416C121.808 116.707 109.905 127.473 99.0418 127.538ZM95.4772 113.385C95.5112 119.071 99.0077 121.851 103.761 121.823C113.266 121.766 120.522 114.423 123.708 107.954C124.797 105.571 125.378 103.36 125.368 101.663L125.345 97.7589C116.362 100.189 101.621 104.606 96.7925 106.248C95.9565 108.374 95.4625 110.924 95.4772 113.385Z" fill="#ffffff"/>
<path d="M178.984 125.871C178.73 125.873 178.559 125.704 178.557 125.449C178.556 125.195 178.725 125.024 178.979 125.022L179.743 125.018C185.09 124.986 186.851 121.495 186.811 114.706L186.282 26.3537C186.241 19.5639 184.439 16.1797 179.092 16.2117L178.328 16.2163C178.073 16.2178 177.903 16.0491 177.901 15.7945C177.9 15.5398 178.068 15.3691 178.323 15.3676L202.087 15.2254C202.342 15.2238 202.513 15.3926 202.514 15.6472C202.516 15.9018 202.347 16.0725 202.092 16.0741L201.244 16.0792C195.897 16.1112 194.135 19.5167 194.175 26.3065L194.704 114.658C194.745 121.448 196.548 124.917 201.895 124.885L202.743 124.88C202.998 124.879 203.169 125.047 203.17 125.302C203.172 125.557 203.003 125.727 202.748 125.729L178.984 125.871Z" fill="#ffffff"/>
<path d="M240.439 126.692C220.154 126.813 206.828 112.549 206.723 94.9803C206.644 81.6554 214.979 70.4868 224.146 70.432C228.304 70.4071 230.611 72.8547 230.629 75.9101C230.654 80.0688 227.353 81.6163 223.624 82.4874C214.383 84.3251 209.915 89.3594 209.976 99.5441C210.063 114.142 222.524 125.695 238.905 125.597C256.558 125.492 268.955 112.262 268.859 96.1362C268.761 79.7559 260.232 72.8472 246.088 63.6804C228.877 52.6647 220.176 45.3327 220.102 32.9413C220.042 23.0113 227.202 13.8868 239.763 13.8116C249.269 13.7547 254.305 18.5625 258.464 18.5376C261.18 18.5214 262.189 16.9876 262.168 13.4229C262.155 11.2163 262.062 9.94368 261.966 7.99213C261.964 7.73751 262.048 7.56726 262.388 7.56523C262.642 7.56371 262.812 7.64756 262.814 7.98705L264.704 40.1434C264.706 40.4829 264.537 40.5688 264.283 40.5703C264.028 40.5719 263.943 40.4875 263.856 40.2334C259.783 26.1685 250.887 14.5938 239.683 14.6609C231.875 14.7076 226.309 20.5973 226.359 28.9996C226.424 39.8633 233.676 46.1855 250.887 57.2012C263.666 65.1878 275.942 74.196 276.049 92.0192C276.162 110.946 262.336 126.561 240.439 126.692Z" fill="#ffffff"/>
<path d="M338.665 131.027C338.326 131.029 338.24 130.859 338.238 130.605L338.234 129.841C338.213 126.361 336.422 124.929 332.433 124.953L282.019 125.255C281.764 125.256 281.594 125.087 281.592 124.833C281.591 124.578 281.759 124.407 282.014 124.406L282.778 124.401C288.125 124.369 289.886 120.879 289.846 114.089L289.317 25.7371C289.276 18.9473 287.474 15.5631 282.127 15.5951L281.363 15.5997C281.108 15.6012 280.937 15.4325 280.936 15.1779C280.934 14.9233 281.103 14.7525 281.358 14.751L304.782 14.6108C305.037 14.6093 305.208 14.778 305.209 15.0326C305.211 15.2872 305.042 15.458 304.788 15.4595L304.024 15.4641C298.931 15.4946 297.169 18.9001 297.21 25.6899L297.739 114.042C297.779 120.832 299.582 124.301 305.184 124.267L317.915 124.191C332.004 124.107 337.376 114.059 339.743 98.3432C339.742 98.1734 339.826 98.0032 340.165 98.0011C340.42 97.9996 340.59 98.0835 340.592 98.4229L339.087 130.6C339.089 130.939 338.92 131.025 338.665 131.027Z" fill="#ffffff"/>
<path d="M339.987 124.908C339.732 124.909 339.561 124.74 339.56 124.486C339.558 124.231 339.727 124.06 339.982 124.059L340.406 124.056C344.31 124.033 350.049 118.567 355.909 104.952L395.166 13.2212C395.25 13.0509 395.334 12.8807 395.758 12.8781C396.098 12.8761 396.184 13.0453 396.27 13.2146L443.968 112.233C447.577 119.596 451.673 123.391 456.341 123.363L456.596 123.361C456.851 123.36 457.021 123.528 457.023 123.783C457.024 124.037 456.856 124.208 456.601 124.21L432.243 124.356C431.988 124.357 431.817 124.188 431.816 123.934C431.814 123.679 431.983 123.508 432.238 123.507L432.662 123.504C435.802 123.485 437.493 122.372 437.478 119.826C437.469 118.298 436.862 116.265 435.573 113.556L416.406 73.4403C414.773 70.0551 412.902 69.4721 410.78 69.4848L375.389 69.6966C372.758 69.7124 371.323 70.9941 370.067 73.9723L358.434 101.372C356.09 106.903 355.098 111.237 355.117 114.547C355.159 121.422 359.333 123.943 364 123.915L365.104 123.909C365.358 123.907 365.529 124.076 365.531 124.33C365.532 124.585 365.364 124.756 365.109 124.757L339.987 124.908ZM410.521 68.7225C411.964 68.7139 413.066 68.5375 413.059 67.2645C413.056 66.7552 412.796 65.908 412.281 64.8926L392.081 22.491L373.75 65.2929C373.332 66.3139 373.25 66.9086 373.254 67.5027C373.261 68.6909 374.281 68.9394 375.639 68.9313L410.521 68.7225Z" fill="#ffffff"/>
<path d="M138.951 158.117L140.742 158.2L142.203 158.207C143.815 158.219 145.316 158.079 146.707 157.788C146.158 158.67 145.166 159.242 143.734 159.502C143.075 159.621 141.882 159.685 140.154 159.696L138.961 159.703L138.97 161.273C138.985 163.692 138.998 165.042 139.01 165.325C139.117 167.439 139.387 168.746 139.819 169.246L135.453 169.272C135.984 168.672 136.232 165.53 136.198 159.845L136.19 158.526C136.171 155.343 136.161 153.679 136.16 153.532C136.049 150.759 135.772 149.132 135.33 148.653L137.544 148.64L143.495 148.51L145.427 148.546C145.804 148.554 146.317 148.598 146.967 148.678L147.108 151.347C146.516 150.282 144.67 149.759 141.571 149.778C141.435 149.779 141.236 149.785 140.974 149.797C140.723 149.809 140.53 149.816 140.393 149.816L139.687 149.821C139.467 149.853 139.305 149.875 139.2 149.886C139.058 150.578 138.984 151.338 138.978 152.165L138.951 158.117Z" fill="#ffffff"/>
<path d="M153.86 159.033L160.361 158.994L157.281 150.705L153.86 159.033ZM146.76 169.204C148.184 167.479 149.656 165.02 151.176 161.828C152.54 158.941 153.799 155.85 154.952 152.556C155.539 150.888 155.831 149.881 155.829 149.536L155.827 149.253C155.784 149.096 155.699 148.856 155.572 148.532L159.56 148.508C162.87 159.282 165.571 166.139 167.661 169.079L164.144 169.1L160.855 160.184L153.349 160.229L151.956 163.692C151.111 165.844 150.69 167.343 150.695 168.191C150.697 168.422 150.708 168.579 150.73 168.662L150.858 169.18L146.76 169.204Z" fill="#ffffff"/>
<path d="M168.174 168.244L168.153 164.742C169.475 166.912 171.413 167.989 173.968 167.974C175.182 167.966 176.174 167.615 176.945 166.919C177.757 166.192 178.16 165.232 178.153 164.038C178.147 163.023 177.791 162.14 177.085 161.391C176.589 160.849 175.79 160.278 174.687 159.678L174.262 159.445C170.628 157.456 168.805 155.457 168.792 153.447C168.782 151.72 169.481 150.36 170.888 149.367C172.118 148.491 173.639 148.047 175.45 148.036C175.953 148.033 176.649 148.05 177.539 148.087L179.471 148.169L180.288 148.164L180.308 151.509C179.462 150.122 178.039 149.434 176.04 149.446C174.857 149.453 173.879 149.7 173.107 150.186C172.179 150.767 171.718 151.613 171.725 152.723C171.735 154.387 173.162 155.865 176.007 157.157L176.212 157.25C177.829 157.984 179.106 158.908 180.045 160.022C180.814 160.939 181.203 161.978 181.21 163.141C181.221 165.004 180.45 166.542 178.897 167.756C177.48 168.863 175.808 169.423 173.882 169.435C173.065 169.439 172.185 169.345 171.242 169.152C170.215 168.938 169.192 168.636 168.174 168.244Z" fill="#ffffff"/>
<path d="M197.711 157.294L197.705 156.226C197.691 153.923 197.672 152.573 197.649 152.175C197.542 150.061 197.267 148.764 196.825 148.285L201.237 148.259C200.936 148.564 200.726 149.361 200.608 150.65C200.611 151.131 200.6 151.958 200.576 153.131L200.517 156.476C200.503 157.544 200.499 158.654 200.506 159.806C200.523 162.643 200.537 164.177 200.549 164.407C200.648 166.94 200.918 168.43 201.361 168.878L196.948 168.904C197.499 168.273 197.761 165.612 197.733 160.922L197.718 158.472L188.108 158.529L188.122 160.979C188.137 163.397 188.15 164.748 188.162 165.031C188.269 167.145 188.539 168.452 188.971 168.952L184.605 168.978C185.136 168.378 185.384 165.236 185.35 159.551L185.342 158.232C185.323 155.049 185.313 153.385 185.312 153.238C185.201 150.464 184.924 148.838 184.482 148.359L188.847 148.333C188.556 148.67 188.351 149.294 188.23 150.205C188.12 151.033 188.075 153.059 188.094 156.284L188.1 157.352L197.711 157.294Z" fill="#ffffff"/>
<path d="M205.114 168.855C205.644 168.255 205.893 165.113 205.858 159.428L205.851 158.109C205.832 154.927 205.822 153.262 205.821 153.115C205.71 150.342 205.433 148.715 204.991 148.236L209.356 148.21C209.075 148.516 208.87 149.213 208.741 150.303C208.631 151.235 208.587 153.554 208.609 157.26L208.624 159.757C208.641 162.5 208.655 164.034 208.668 164.358C208.777 166.902 209.048 168.392 209.48 168.829L205.114 168.855Z" fill="#ffffff"/>
<path d="M222.978 167.586C225.176 167.573 226.814 166.637 227.892 164.777C228.783 163.254 229.222 161.314 229.208 158.959C229.192 156.362 228.719 154.198 227.787 152.466C226.612 150.274 224.836 149.186 222.459 149.2C220.104 149.214 218.345 150.135 217.184 151.964C216.198 153.509 215.713 155.527 215.728 158.019C215.744 160.72 216.27 162.905 217.306 164.573C218.554 166.597 220.444 167.601 222.978 167.586ZM221.998 169.147C218.867 169.165 216.48 168.232 214.836 166.347C213.286 164.566 212.502 162.084 212.482 158.902C212.462 155.405 213.293 152.699 214.978 150.784C216.746 148.784 219.352 147.774 222.796 147.753C229.172 147.715 232.38 151.061 232.42 157.793C232.44 161.133 231.551 163.829 229.752 165.881C227.87 168.038 225.285 169.127 221.998 169.147Z" fill="#ffffff"/>
<path d="M237.621 150.491L237.778 160.87C237.814 163.467 237.909 165.23 238.061 166.161C238.235 167.259 238.512 168.09 238.892 168.653L235.155 168.675C235.944 167.655 236.318 163.58 236.275 156.451C236.26 153.875 236.24 152.399 236.217 152.023C236.068 149.825 235.673 148.503 235.031 148.057L238.376 148.037C238.983 148.033 239.662 148.594 240.412 149.72L240.872 150.409L243.708 154.616C247.056 159.59 249.433 163.025 250.836 164.922L250.814 155.908C250.786 151.292 250.488 148.645 249.918 147.968L252.981 147.949C252.668 148.234 252.453 149.02 252.335 150.309C252.227 151.524 252.185 154.094 252.209 158.02L252.272 168.667L250.184 168.68C249.772 168.043 247.981 165.437 244.813 160.86L237.621 150.491Z" fill="#ffffff"/>
<path d="M264.343 167.668L264.322 164.166C265.643 166.336 267.581 167.413 270.136 167.398C271.35 167.391 272.343 167.039 273.113 166.344C273.926 165.617 274.328 164.656 274.321 163.463C274.315 162.447 273.959 161.565 273.253 160.815C272.758 160.274 271.959 159.703 270.856 159.102L270.43 158.869C266.796 156.881 264.973 154.881 264.961 152.871C264.95 151.144 265.649 149.784 267.056 148.792C268.287 147.915 269.807 147.472 271.618 147.461C272.121 147.458 272.817 147.475 273.707 147.511L275.639 147.594L276.456 147.589L276.476 150.934C275.63 149.546 274.207 148.859 272.208 148.871C271.025 148.878 270.047 149.124 269.276 149.611C268.347 150.192 267.886 151.037 267.893 152.147C267.903 153.812 269.331 155.29 272.175 156.582L272.38 156.675C273.997 157.408 275.274 158.332 276.213 159.447C276.983 160.364 277.371 161.403 277.378 162.565C277.389 164.429 276.618 165.967 275.066 167.18C273.648 168.288 271.977 168.848 270.05 168.859C269.234 168.864 268.354 168.77 267.41 168.577C266.383 168.363 265.361 168.06 264.343 167.668Z" fill="#ffffff"/>
<path d="M293.879 156.719L293.873 155.651C293.859 153.348 293.841 151.997 293.817 151.599C293.71 149.485 293.436 148.189 292.993 147.71L297.406 147.683C297.104 147.989 296.894 148.786 296.776 150.074C296.779 150.556 296.768 151.383 296.744 152.556L296.685 155.901C296.671 156.969 296.667 158.079 296.674 159.23C296.691 162.067 296.705 163.601 296.717 163.831C296.816 166.364 297.087 167.855 297.529 168.302L293.116 168.328C293.668 167.697 293.929 165.036 293.901 160.346L293.886 157.896L284.276 157.954L284.29 160.404C284.305 162.822 284.318 164.172 284.33 164.455C284.437 166.569 284.707 167.876 285.139 168.376L280.774 168.402C281.304 167.802 281.552 164.66 281.518 158.975L281.51 157.656C281.491 154.474 281.481 152.809 281.48 152.663C281.369 149.889 281.093 148.263 280.65 147.784L285.016 147.758C284.725 148.094 284.519 148.718 284.399 149.63C284.289 150.458 284.243 152.484 284.262 155.708L284.269 156.776L293.879 156.719Z" fill="#ffffff"/>
<path d="M311.043 167.059C313.241 167.046 314.88 166.11 315.957 164.25C316.848 162.727 317.287 160.787 317.273 158.432C317.257 155.835 316.784 153.671 315.852 151.939C314.677 149.747 312.901 148.659 310.525 148.673C308.169 148.687 306.411 149.608 305.249 151.437C304.264 152.982 303.778 155 303.793 157.492C303.809 160.193 304.335 162.378 305.371 164.046C306.619 166.07 308.509 167.074 311.043 167.059ZM310.063 168.62C306.933 168.638 304.545 167.705 302.901 165.82C301.351 164.039 300.567 161.557 300.548 158.375C300.527 154.878 301.359 152.172 303.043 150.257C304.811 148.257 307.417 147.247 310.861 147.226C317.237 147.188 320.445 150.534 320.485 157.266C320.505 160.606 319.616 163.302 317.817 165.354C315.935 167.511 313.35 168.6 310.063 168.62Z" fill="#ffffff"/>
<path d="M339.239 168.21C339.096 167.174 338.721 165.611 338.111 163.521L334.439 150.807C333.949 152.83 333.102 155.746 331.9 159.553C330.657 163.466 329.8 166.371 329.33 168.269L326.566 168.285C325.875 162.992 325.051 158.354 324.096 154.371C323.151 150.429 322.368 148.152 321.746 147.538L323.803 147.525C324.63 147.52 325.192 147.805 325.489 148.379C325.574 148.546 325.75 149.231 326.019 150.433C326.536 152.859 327.11 155.986 327.74 159.814C327.978 161.058 328.272 162.931 328.622 165.431L328.639 165.603L331.707 156.162C332.612 153.383 333.06 151.27 333.051 149.826C333.049 149.438 332.973 149.036 332.824 148.618C332.675 148.189 332.468 147.809 332.205 147.475L337.701 147.442C337.213 148.115 336.971 148.781 336.975 149.441C336.978 149.912 337.108 150.618 337.364 151.559L341.186 165.528L343.377 156.422C343.775 154.776 344.071 153.414 344.263 152.334C344.466 151.16 344.565 150.28 344.561 149.694C344.556 148.783 344.347 148.02 343.935 147.405L348.191 147.379C347.442 148.201 346.651 149.907 345.819 152.497C345.315 154.071 344.558 156.96 343.547 161.164C343.138 162.862 342.592 165.206 341.908 168.194L339.239 168.21Z" fill="#ffffff"/>
</g>
</g>
</svg>
